<?xml version="1.0" encoding="UTF-8"?><!DOCTYPE svg PUBLIC "-//W3C//DTD SVG 1.1//EN" "http://www.w3.org/Graphics/SVG/1.1/DTD/svg11.dtd"><svg xmlns="http://www.w3.org/2000/svg" xmlns:xlink="http://www.w3.org/1999/xlink"><symbol id="accordion-arrow" viewBox="0 0 20 20"><path d="m9.293 12.95.707.707L15.657 8l-1.414-1.414L10 10.828 5.757 6.586 4.343 8z"/></symbol><symbol id="arrow" viewBox="0 -960 960 960"><path d="m480-160-42-43 247-247H160v-60h525L438-757l42-43 320 320-320 320Z"/></symbol><symbol id="fb" viewBox="0 0 24 24"><g fill="none"><path d="M9.684 11.314h4.631m.001-3.859h-.81a2.278 2.278 0 0 0-2.277 2.277v6.813" stroke="#fff" stroke-width="1.5" stroke-linecap="round" stroke-linejoin="round"/><path clip-rule="evenodd" d="M12 22c5.523 0 10-4.477 10-10S17.523 2 12 2 2 6.477 2 12s4.477 10 10 10z" stroke="#fff" stroke-width="1.5" stroke-linecap="round" stroke-linejoin="round"/></g></symbol><symbol id="ig" viewBox="0 0 24 24"><g fill="none"><path clip-rule="evenodd" d="M7.496 3h9.009A4.495 4.495 0 0 1 21 7.496v9.009A4.495 4.495 0 0 1 16.504 21H7.496A4.495 4.495 0 0 1 3 16.504V7.496A4.495 4.495 0 0 1 7.496 3v0z" stroke="#fff" stroke-width="1.5" stroke-linecap="round" stroke-linejoin="round"/><path d="M16.949 6.713a.338.338 0 1 0 .002.674.338.338 0 0 0-.002-.674m-2.403 2.741a3.6 3.6 0 1 1-5.091 5.092 3.6 3.6 0 0 1 5.09-5.092" stroke="#fff" stroke-width="1.5" stroke-linecap="round" stroke-linejoin="round"/></g></symbol><symbol id="mail" viewBox="0 -960 960 960"><path d="M140-160q-24 0-42-18t-18-42v-520q0-24 18-42t42-18h680q24 0 42 18t18 42v520q0 24-18 42t-42 18H140Zm340-302L140-685v465h680v-465L480-462Zm0-60 336-218H145l335 218ZM140-685v-55 520-465Z"/></symbol></svg>